<?xml version="1.0" encoding="UTF-8" standalone="no"?>
<!-- Created with Inkscape (http://www.inkscape.org/) -->

<svg
   xmlns:dc="http://purl.org/dc/elements/1.1/"
   xmlns:cc="http://creativecommons.org/ns#"
   xmlns:rdf="http://www.w3.org/1999/02/22-rdf-syntax-ns#"
   xmlns:svg="http://www.w3.org/2000/svg"
   xmlns="http://www.w3.org/2000/svg"
   xmlns:sodipodi="http://sodipodi.sourceforge.net/DTD/sodipodi-0.dtd"
   xmlns:inkscape="http://www.inkscape.org/namespaces/inkscape"
   width="267.51938mm"
   height="288.85986mm"
   viewBox="0 0 267.51938 288.85986"
   version="1.1"
   id="svg8"
   inkscape:version="0.92.3 (2405546, 2018-03-11)"
   sodipodi:docname="Hamedan Technical University.svg">
  <defs
     id="defs2" />
  <sodipodi:namedview
     id="base"
     pagecolor="#ffffff"
     bordercolor="#666666"
     borderopacity="1.0"
     inkscape:pageopacity="0.0"
     inkscape:pageshadow="2"
     inkscape:zoom="0.35"
     inkscape:cx="21.555175"
     inkscape:cy="607.87248"
     inkscape:document-units="mm"
     inkscape:current-layer="layer1"
     showgrid="false"
     fit-margin-top="0"
     fit-margin-left="0"
     fit-margin-right="0"
     fit-margin-bottom="0"
     inkscape:window-width="1920"
     inkscape:window-height="1017"
     inkscape:window-x="-8"
     inkscape:window-y="-8"
     inkscape:window-maximized="1" />
  <metadata
     id="metadata5">
    <rdf:RDF>
      <cc:Work
         rdf:about="">
        <dc:format>image/svg+xml</dc:format>
        <dc:type
           rdf:resource="http://purl.org/dc/dcmitype/StillImage" />
        <dc:title></dc:title>
      </cc:Work>
    </rdf:RDF>
  </metadata>
  <g
     inkscape:label="Layer 1"
     inkscape:groupmode="layer"
     id="layer1"
     transform="translate(28.759688,-20.806398)">
    <path
       style="fill:#000000;stroke-width:0.08466667"
       d="m 133.20128,20.806777 c -19.60082,0.008 -42.060748,0.144881 -45.433405,0.348299 -4.273677,0.257763 -12.534973,0.258132 -16.770027,5.17e-4 -0.791659,-0.04816 -7.381822,-0.08328 -15.76906,-0.08372 l -14.409473,-5.17e-4 0.04961,0.317294 c 0.09742,0.625403 0.118322,0.643211 2.284095,1.929081 4.644602,2.757576 6.919066,4.178238 10.101713,6.308658 5.312145,3.555883 9.497403,6.783413 13.927322,10.740948 1.632506,1.458431 5.702565,5.535265 7.108084,7.119977 12.07815,13.617998 20.215783,29.888039 27.100161,54.182746 0.40181,1.41799 0.78923,2.69401 0.86093,2.836 0.39016,0.77257 0.99594,1.18811 1.91875,1.3162 1.10471,0.15334 2.22291,-0.0488 2.77244,-0.50178 0.53123,-0.43788 0.79031,-1.07981 1.42472,-3.52847 5.20656,-20.095911 13.35002,-36.568215 24.984,-50.536966 7.09879,-8.523422 14.06822,-14.742575 30.60537,-27.310479 l 3.72484,-2.830834 -0.38086,-0.01964 c -0.20939,-0.01085 -3.20018,-0.07803 -6.6461,-0.148828 -4.96144,-0.101943 -15.69262,-0.143293 -27.45311,-0.138493 z m 53.88353,17.705895 c -0.0148,0 0.0208,0.371248 0.0791,0.825273 0.38696,3.01535 0.51739,7.412453 0.29559,9.969934 -0.66865,7.710484 -2.99645,13.707938 -8.00158,20.616312 -4.00731,5.531114 -8.99683,10.290995 -14.78153,14.101466 -2.25746,1.487021 -7.93989,4.846343 -28.06702,16.592273 -9.53191,5.56269 -12.88585,7.47768 -14.32419,8.17934 -2.35362,1.14816 -3.18654,1.63902 -3.8778,2.28565 -0.76906,0.71943 -1.02019,1.25537 -1.00769,2.14819 0.0165,1.18487 0.45988,2.08915 2.15956,4.40593 1.19719,1.63183 1.35061,1.86459 2.23242,3.38429 1.5286,2.63434 2.17882,3.41022 3.09077,3.68763 0.82993,0.25246 2.07214,-0.23996 5.03845,-1.99729 3.16855,-1.87715 7.27173,-4.2398 11.98015,-6.89777 15.52503,-8.76412 20.53582,-11.75443 27.38954,-16.346808 5.32213,-3.566129 7.83621,-5.566278 11.05152,-8.791713 2.41946,-2.427084 4.2138,-4.610153 5.88698,-7.162353 4.45611,-6.797161 6.54482,-14.261541 6.36137,-22.732978 -0.16761,-7.739637 -1.84285,-15.008693 -4.83795,-20.988901 -0.35223,-0.703284 -0.65286,-1.278475 -0.66766,-1.278475 z M 22.939276,39.805617 c -0.200369,-0.008 -0.272415,0.04808 -0.479557,0.247531 -0.350414,0.337399 -0.374756,0.393311 -1.128607,2.59674 -4.091146,11.957751 -4.595891,22.464635 -1.521354,31.67662 2.750794,8.242009 8.318553,15.477572 16.808265,21.843111 4.033599,3.024359 10.015431,6.961311 16.044492,10.559561 3.737028,2.23032 6.976533,4.08531 15.493629,8.87181 6.217311,3.49404 10.451253,5.92561 13.719069,7.87911 1.450658,0.8672 2.757699,1.62892 2.904728,1.69292 0.354621,0.15413 1.021239,0.15364 1.321382,-0.002 0.417592,-0.21596 0.789599,-0.74745 1.823649,-2.60295 1.403061,-2.51768 2.948654,-5.17396 4.044714,-6.95255 1.047441,-1.69967 1.247987,-2.14856 1.247987,-2.79259 0,-0.56458 -0.306327,-1.08115 -0.898136,-1.51463 -0.22782,-0.16687 -4.05262,-2.3892 -8.499742,-4.93872 C 68.288912,97.466228 61.14757,93.288835 53.381864,88.565949 45.40338,83.713668 43.378206,82.373606 40.385769,79.96544 37.303505,77.485019 34.102814,74.23823 31.82245,71.27863 27.242116,65.333971 24.133817,57.922397 23.265349,50.874191 c -0.07215,-0.585907 -0.108426,-1.942878 -0.10541,-3.979601 0.0033,-2.610876 0.03347,-3.366288 0.195342,-4.868436 0.105357,-0.9779 0.211111,-1.85815 0.235108,-1.95647 0.03897,-0.15971 -0.0035,-0.185332 -0.398409,-0.237712 -0.105066,-0.01394 -0.185923,-0.02369 -0.252704,-0.02636 z M 198.49238,102.73097 c -4.75318,-0.0443 -9.653,0.77644 -14.72933,2.46187 -4.61446,1.53209 -11.37143,4.66814 -18.83296,8.74004 -4.36368,2.38132 -7.45511,4.18452 -17.73742,10.34613 -9.86391,5.91088 -12.25031,7.31042 -16.17162,9.48366 -0.6985,0.38712 -1.43144,0.81808 -1.62884,0.95808 -0.48068,0.34092 -0.73861,0.87209 -0.66921,1.37821 0.0665,0.48495 0.0918,0.53147 1.64383,3.07992 1.506,2.47282 3.18028,5.37796 4.0411,7.01146 0.74296,1.40984 1.08287,1.86995 1.56682,2.11976 0.46424,0.23961 0.9732,0.20932 1.64487,-0.0982 0.24593,-0.11258 1.56705,-0.87077 2.93573,-1.68465 5.81479,-3.45782 10.93724,-6.43759 15.82384,-9.20564 3.57837,-2.027 5.36711,-3.08326 10.54096,-6.22391 4.96438,-3.0135 7.16197,-4.31693 9.56686,-5.67356 12.06999,-6.80884 22.29639,-10.16289 31.79238,-10.42727 8.02502,-0.22343 15.60462,2.02367 22.39449,6.63939 1.48123,1.00694 1.88828,1.20336 2.49752,1.20251 0.73407,-7.4e-4 0.74608,-0.0348 0.31316,-0.89659 -0.24792,-0.49353 -0.6073,-1.01507 -1.04386,-1.51463 -6.10651,-6.98787 -13.12081,-12.21227 -20.09696,-14.9686 -4.49127,-1.77453 -9.09817,-2.68373 -13.85136,-2.728 z m -186.067195,0.13126 c -1.285822,6e-4 -2.5658502,0.0295 -3.2556192,0.0863 -1.4467416,0.11912 -3.1817732,0.36961 -4.7009842,0.67851 -6.5022147,1.32208 -12.9105553,4.56201 -18.8991076,9.55549 -2.649432,2.20918 -7.828068,7.34632 -8.416555,8.34885 -0.353033,0.60143 -0.69797,1.49672 -0.811318,2.10633 l -0.06149,0.33176 0.196876,-0.12919 c 4.307602,-2.8204 5.907643,-3.78254 8.070824,-4.8519 6.783096,-3.3532 12.9006595,-4.41905 20.8705708,-3.6375 6.5685462,0.64414 13.0570292,2.45199 19.6427192,5.47356 2.659724,1.22029 4.728607,2.32267 8.551413,4.55631 1.094317,0.6394 6.732958,3.91609 12.530508,7.28173 11.693736,6.78856 18.151183,10.55202 22.745382,13.25655 3.269615,1.92478 3.775525,2.20358 4.305697,2.37195 v 5.2e-4 c 0.787426,0.2501 1.483968,0.0586 2.006071,-0.55139 0.166899,-0.19501 0.637778,-0.99079 1.046453,-1.76837 1.44235,-2.74443 2.934282,-5.30643 4.415737,-7.58299 0.84664,-1.301 1.103127,-1.78964 1.175121,-2.23966 0.07898,-0.49388 -0.08887,-0.89036 -0.551392,-1.3038 -0.22479,-0.20092 -1.94945,-1.24781 -3.86797,-2.34766 -1.904207,-1.09166 -8.167529,-4.70619 -13.918539,-8.03207 -11.362663,-6.57121 -22.541573,-12.97399 -24.892026,-14.25752 -7.858998,-4.29162 -15.348373,-6.66762 -22.893681,-7.26261 -0.71165,-0.0562 -2.002843,-0.0838 -3.28869,-0.0832 z m 92.384035,13.43432 c -0.0542,0.0557 -19.650819,34.38559 -19.963133,34.97203 l -0.102314,0.19172 19.840647,-0.0222 c 18.97565,-0.0213 19.85077,-0.0293 20.07423,-0.1757 0.3103,-0.20331 0.35577,-0.3527 0.2403,-0.78445 -0.0532,-0.19876 -2.03356,-3.65034 -4.40129,-7.67033 -2.36773,-4.01999 -6.85179,-11.64485 -9.96425,-16.94367 -3.11244,-5.29882 -5.6884,-9.60418 -5.72419,-9.56738 z m 132.86062,31.50299 -2.3549,1.03456 c -7.21237,3.16906 -11.52599,4.90825 -17.21393,6.93911 -11.3067,4.03701 -21.41813,6.46664 -31.00948,7.45123 -3.07707,0.31587 -5.27657,0.43672 -8.82634,0.48472 -12.96013,0.17534 -25.95115,-1.64332 -39.78051,-5.56916 -2.08263,-0.59122 -2.55406,-0.63149 -3.26234,-0.27854 -0.55197,0.27507 -1.01445,0.83717 -1.47587,1.79472 -0.29804,0.61848 -0.3401,0.7794 -0.3421,1.31207 -0.004,1.02362 0.10351,1.16772 3.10162,4.16357 5.97027,5.96577 11.13179,11.97538 16.54214,19.26135 10.56063,14.2217 17.09175,29.15585 19.79156,45.2546 0.72736,4.33717 1.04466,7.55855 1.44797,14.68955 0.2328,4.11623 0.39514,6.38543 0.59583,8.33954 0.14914,1.45218 0.52643,4.32522 0.59893,4.56044 0.0405,0.13136 0.0807,0.10334 0.2403,-0.16898 0.10545,-0.17993 2.0778,-3.58501 4.38267,-7.56646 2.30488,-3.98145 16.44487,-28.39481 31.42237,-54.25199 14.9775,-25.85718 27.23193,-47.04118 27.23193,-47.07568 0,-0.0345 -0.24501,-0.13279 -0.54467,-0.21859 z m -266.424061,0.0305 c -0.02103,0.005 0.01982,0.10637 0.101812,0.2465 0.09369,0.16015 14.43302,24.916 31.8652516,55.01318 l 31.6952044,54.72224 0.160708,-0.25374 c 0.08832,-0.13945 0.236855,-0.47186 0.330729,-0.73897 0.160841,-0.45761 0.172323,-0.73051 0.197935,-4.72684 0.03339,-5.21645 0.214286,-8.86187 0.685218,-13.80898 1.480159,-15.54879 5.333577,-28.16826 12.551172,-41.1055 5.924682,-10.6197 14.86572,-22.05753 25.722474,-32.90548 2.320237,-2.31831 2.373868,-2.39761 2.301663,-3.40651 -0.07863,-1.099 -1.061217,-2.61749 -1.982311,-3.06338 -0.337423,-0.16336 -0.475033,-0.18048 -1.117759,-0.13798 -0.475853,0.0315 -1.000813,0.13727 -1.496034,0.30127 -3.158119,1.04593 -12.148581,3.08919 -17.52502,3.98322 -8.107125,1.34814 -14.350339,1.84515 -22.129406,1.76165 -4.226904,-0.0454 -6.085523,-0.14053 -9.493991,-0.48679 -12.219067,-1.24133 -26.4618256,-5.17313 -43.85728,-12.10675 -2.773733,-1.10559 -7.823279,-3.17846 -7.997428,-3.283 -0.0056,-0.003 -0.0099,-0.005 -0.01294,-0.004 z m 115.615692,10.10481 c -1.20605,0 -1.245499,0.006 -1.735799,0.25632 -0.864526,0.44098 -1.231794,1.18199 -1.404064,2.83393 -0.121973,1.16967 -0.04064,12.08689 0.149357,20.0241 0.173673,7.25537 0.200713,20.08547 0.04961,23.62181 -0.398595,9.32849 -1.038199,15.38349 -2.145613,20.32021 -2.554737,11.38866 -8.160808,20.02302 -16.709072,25.73538 -0.791633,0.529 -1.852215,1.19766 -2.356961,1.4857 -1.263465,0.721 -4.112683,2.10381 -5.389827,2.61586 -1.399275,0.561 -1.727068,0.93469 -1.227323,1.39785 l 0.211879,0.19637 2.899542,-0.58446 c 3.305519,-0.66589 5.074867,-1.08201 7.132902,-1.67794 4.371525,-1.26583 8.279394,-2.88899 11.734165,-4.87412 10.054989,-5.77761 16.464552,-14.68155 19.302192,-26.81438 1.243379,-5.31629 2.058559,-12.91625 2.363159,-22.0338 0.12557,-3.7574 0.10306,-12.92698 -0.0496,-20.23546 -0.074,-3.53907 -0.1408,-9.7494 -0.1478,-13.8007 l -0.0129,-7.36596 -0.18655,-0.29921 c -0.24744,-0.39783 -0.74278,-0.6638 -1.349791,-0.7245 -0.272698,-0.0273 -1.82939,-0.0104 -3.459221,0.0377 -2.203688,0.0651 -3.408206,0.0617 -4.698936,-0.0134 -0.954611,-0.0556 -2.290638,-0.10129 -2.969329,-0.10129 z m 36.681999,0.0284 c -0.31118,0.006 -3.17516,0.0233 -6.36498,0.0377 -6.42656,0.029 -6.14427,0.004 -6.65851,0.58962 -0.15604,0.17773 -0.29987,0.46718 -0.35347,0.71107 -0.0598,0.27197 -0.10616,3.86812 -0.13746,10.61382 -0.026,5.61128 -0.0716,13.42169 -0.10077,17.35657 -0.10711,14.44919 0.39241,25.34327 1.45004,31.62287 2.16229,12.83839 8.17829,22.48995 18.03456,28.93467 5.91213,3.86577 13.16381,6.59686 21.886,8.24187 1.78355,0.33638 2.10204,0.33847 2.28255,0.0155 0.11725,-0.20982 0.11522,-0.25637 -0.0222,-0.5116 -0.12884,-0.23924 -0.29712,-0.34128 -1.14205,-0.69401 -1.23181,-0.51425 -3.89502,-1.83178 -5.08909,-2.51768 -7.12404,-4.09222 -12.58272,-10.0504 -15.88534,-17.33951 -2.25588,-4.97885 -3.94778,-10.71962 -4.81882,-16.34836 -0.21898,-1.41499 -0.46652,-3.55423 -0.65526,-5.66528 -0.0758,-0.84742 -0.1146,-7.91936 -0.1509,-27.34717 -0.0541,-28.9616 -0.002,-26.58361 -0.60151,-27.18336 -0.36873,-0.36872 -0.898,-0.53226 -1.67277,-0.51676 z"
       id="path826"
       inkscape:connector-curvature="0" />
    <g
       aria-label="دانشگاه صنعتی همدان"
       style="font-style:normal;font-weight:normal;font-size:32.33363724px;line-height:1.25;font-family:sans-serif;letter-spacing:0px;word-spacing:0px;fill:#000000;fill-opacity:1;stroke:none;stroke-width:0.80834085"
       id="text833">
      <path
         d="m 229.74026,292.66268 q 0,3.63122 -0.99463,5.16265 -1.40513,2.16294 -4.78374,2.16294 h -3.18916 q -1.84718,0 -2.8734,-1.10515 -1.01042,-1.10516 -1.01042,-2.96813 0,-1.29461 0.29997,-2.63658 0.20524,-0.89991 0.75782,-0.89991 0.66309,0 0.89991,1.35776 0.23682,1.4367 3.89961,1.4367 5.55734,0 5.55734,-1.23146 0,-0.82097 -2.77867,-2.92076 -2.77867,-2.09979 -3.71016,-2.09979 -0.22103,0 -0.50521,0.14209 -0.26839,0.14209 -0.36312,0.14209 -0.59994,0 -0.59994,-0.63152 0,-0.20524 0.11051,-0.48942 l 1.46828,-3.71016 q 0.20524,-0.50521 0.74203,-0.50521 1.32619,0 4.07328,2.9997 2.9997,3.2681 2.9997,5.79416 z"
         style="font-style:normal;font-variant:normal;font-weight:bold;font-stretch:normal;font-family:'B Zar';-inkscape-font-specification:'B Zar Bold';stroke-width:0.80834085"
         id="path835" />
      <path
         d="m 214.0313,280.37969 -1.51564,18.36134 q -0.11052,1.35776 -0.72625,1.35776 -0.63151,0 -0.83676,-1.72089 l -1.79982,-15.36163 4.26274,-3.09443 q 0.28418,-0.20524 0.44206,-0.20524 0.22103,0 0.17367,0.66309 z"
         style="font-style:normal;font-variant:normal;font-weight:bold;font-stretch:normal;font-family:'B Zar';-inkscape-font-specification:'B Zar Bold';stroke-width:0.80834085"
         id="path837" />
      <path
         d="m 206.3268,293.13632 q 0,2.44712 -1.13673,4.38904 -1.4367,2.46291 -4.08907,2.46291 h -1.16831 v -4.81531 h 0.97885 q 3.12601,0 3.12601,-0.9157 0,-0.80518 -2.81025,-3.3944 l 2.25767,-3.47334 q 0.18946,-0.28418 0.44207,-0.0789 1.2946,1.05779 1.94191,3.11022 0.45785,1.45249 0.45785,2.71552 z m -0.50522,-10.26214 q 0.20525,0.20524 -0.0158,0.42627 l -1.9577,1.9577 q -0.20525,0.20524 -0.42628,0 l -2.00506,-1.94191 q -0.23682,-0.22103 0.0474,-0.50521 l 1.8314,-1.86298 q 0.23682,-0.2526 0.50521,0 z"
         style="font-style:normal;font-variant:normal;font-weight:bold;font-stretch:normal;font-family:'B Zar';-inkscape-font-specification:'B Zar Bold';stroke-width:0.80834085"
         id="path839" />
      <path
         d="m 200.80104,299.98827 h -0.85255 q -1.19988,0 -2.06822,-1.65773 -0.94727,1.70509 -2.32082,1.70509 -1.59458,0 -2.62079,-1.67351 -1.01043,1.62615 -2.36819,1.62615 -1.563,0 -2.54185,-1.57879 -0.2684,0.45785 -0.97885,0.96306 -0.85255,0.61573 -1.56301,0.61573 h -0.89991 v -4.81531 h 0.75782 q 0.97885,0 1.34198,-0.7894 0.0632,-0.14209 0.33154,-1.45248 0.15788,-0.7894 0.66309,-0.7894 0.47364,0 0.6631,0.7894 l 0.34733,1.46827 q 0.31576,0.7894 1.15252,0.7894 1.15251,0 1.59458,-0.80519 0.15788,-0.28418 0.39469,-1.46827 0.15788,-0.7894 0.64731,-0.7894 0.48942,0 0.66309,0.7894 0.28418,1.27882 0.37891,1.46827 0.3947,0.80519 1.42091,0.80519 0.96306,0 1.3104,-0.80519 0.0632,-0.26839 0.33154,-1.46827 0.17367,-0.7894 0.69467,-0.7894 0.44206,0 0.61573,0.7894 0.28418,1.23145 0.3947,1.46827 0.3947,0.7894 1.37355,0.7894 h 1.13673 z m -5.58892,-18.59816 q 0.18945,0.18946 -0.0158,0.3947 l -1.79982,1.79982 q -0.18946,0.18946 -0.3947,0 l -1.84719,-1.76824 q -0.22103,-0.20524 0.0474,-0.47364 l 1.6893,-1.72088 q 0.22103,-0.22103 0.45785,0 z m 1.92612,3.63122 q 0.18946,0.18946 -0.0158,0.3947 l -1.83139,1.8314 q -0.18946,0.18945 -0.3947,0 l -1.78404,-1.78404 -1.76824,1.78404 q -0.18946,0.18945 -0.3947,0 l -1.86297,-1.81561 q -0.22103,-0.20524 0.0474,-0.47364 l 1.7051,-1.73667 q 0.22103,-0.23682 0.45785,0 l 1.73667,1.73667 1.73667,-1.73667 q 0.23681,-0.23682 0.47363,0 z"
         style="font-style:normal;font-variant:normal;font-weight:bold;font-stretch:normal;font-family:'B Zar';-inkscape-font-specification:'B Zar Bold';stroke-width:0.80834085"
         id="path841" />
      <path
         d="m 185.02892,279.60608 -0.15788,1.21567 -13.4513,3.7891 q -0.0789,0.0316 -0.0789,-0.12631 0,-0.26839 0.25261,-0.99463 0.26839,-0.74204 0.44206,-0.7894 l 12.4093,-3.47334 q 0.37891,-0.11051 0.48942,-0.0316 0.14209,0.0789 0.0947,0.41048 z m 0.41048,20.38219 h -2.9997 q -4.08907,0 -6.31516,-3.89961 -0.82097,3.89961 -5.50998,3.89961 h -0.99464 v -4.81531 h 0.47364 q 4.40482,0 4.40482,-0.80518 0,-0.63152 -4.02591,-5.17844 -0.0474,-0.0474 -0.0474,-0.25261 0,-0.45784 0.31576,-1.79982 0.33155,-1.4367 0.58415,-1.49985 l 13.08818,-3.3944 q 0.0474,-0.0158 0.20524,-0.0316 0.37891,-0.0474 0.37891,0.42627 v 2.79446 l -10.90944,2.81025 q 3.89961,4.86267 4.26273,5.22579 1.68931,1.7051 3.6628,1.7051 h 3.42597 z"
         style="font-style:normal;font-variant:normal;font-weight:bold;font-stretch:normal;font-family:'B Zar';-inkscape-font-specification:'B Zar Bold';stroke-width:0.80834085"
         id="path843" />
      <path
         d="m 170.47247,299.98827 h -1.54721 q -4.1838,0 -4.1838,-6.74144 0,-5.36789 -0.3947,-11.31993 l 2.8734,-2.02085 q 0.53679,-0.37891 0.71046,-0.37891 0.22103,0 0.22103,0.7894 l -0.0158,12.59875 q 0,2.25767 1.89455,2.25767 h 0.44206 z"
         style="font-style:normal;font-variant:normal;font-weight:bold;font-stretch:normal;font-family:'B Zar';-inkscape-font-specification:'B Zar Bold';stroke-width:0.80834085"
         id="path845" />
      <path
         d="m 161.48913,293.12053 q 0,2.79446 -1.76824,4.84689 -1.86298,2.14715 -4.61007,2.14715 -4.94162,0 -4.94162,-4.46797 0,-2.79446 1.45249,-5.99941 1.35776,-2.9997 2.24188,-2.9997 1.64194,0 4.4364,1.9577 3.18916,2.24188 3.18916,4.51534 z m -1.72088,0.94728 q 0,-0.56837 -2.92076,-2.0998 -2.84183,-1.48406 -3.64701,-1.48406 -0.37891,0 -0.72624,0.96306 -0.29997,0.83676 -0.29997,1.42091 0,2.46292 3.55227,2.46292 4.04171,0 4.04171,-1.26303 z"
         style="font-style:normal;font-variant:normal;font-weight:bold;font-stretch:normal;font-family:'B Zar';-inkscape-font-specification:'B Zar Bold';stroke-width:0.80834085"
         id="path847" />
      <path
         d="m 139.93864,291.00495 q 0,1.563 -1.18409,3.53649 -1.563,2.6208 -4.16801,4.04171 -2.58922,1.40512 -5.69943,1.40512 -4.23116,0 -5.7468,-1.64194 -0.97885,1.64194 -2.68395,1.64194 h -1.35776 v -4.81531 h 0.88413 q 1.35776,0 1.97348,-0.85255 0.31576,-0.44206 0.59995,-1.563 0.20524,-0.83676 0.59994,-0.83676 0.26839,0 0.83675,1.51564 0.58416,1.49985 1.37355,1.49985 2.13137,-2.84182 5.0995,-4.89425 3.41019,-2.36819 6.18886,-2.36819 1.32618,0 2.30503,1.01043 0.97885,0.99464 0.97885,2.32082 z m -2.92076,2.76288 q 0,-0.96306 -1.37355,-1.62615 -1.13673,-0.55258 -2.21031,-0.55258 -3.26809,0 -5.98361,3.5365 0.99464,0.18945 2.95234,0.18945 2.54185,0 4.40482,-0.34733 2.21031,-0.41049 2.21031,-1.19989 z"
         style="font-style:normal;font-variant:normal;font-weight:bold;font-stretch:normal;font-family:'B Zar';-inkscape-font-specification:'B Zar Bold';stroke-width:0.80834085"
         id="path849" />
      <path
         d="m 119.98273,299.98827 h -1.1841 q -2.68394,0 -3.67858,-3.04707 -0.89991,3.04707 -3.44176,3.04707 h -1.35776 v -4.81531 h 0.86833 q 2.52607,0 3.22074,-3.31546 0.22103,-1.05779 0.78939,-1.05779 0.56837,0 0.69467,1.05779 0.37891,3.31546 2.90497,3.31546 h 1.1841 z m -3.69437,-13.94072 q 0.20524,0.18945 -0.0158,0.41048 l -1.97349,1.9577 q -0.20524,0.20525 -0.42627,0 l -1.98928,-1.92612 q -0.23682,-0.23682 0.0474,-0.521 l 1.8314,-1.86298 q 0.25261,-0.2526 0.50521,0 z"
         style="font-style:normal;font-variant:normal;font-weight:bold;font-stretch:normal;font-family:'B Zar';-inkscape-font-specification:'B Zar Bold';stroke-width:0.80834085"
         id="path851" />
      <path
         d="m 111.20465,299.98827 h -1.15251 q -2.92077,0 -4.53113,-3.88382 -0.59994,1.73667 -1.38934,2.55764 -1.26303,1.32618 -3.53649,1.32618 h -0.947276 v -4.81531 h 0.347334 q 2.652372,0 4.089072,-1.68931 -0.69467,-0.67888 -2.30504,-1.73667 -0.97885,-0.6473 -0.97885,-1.12094 0,-0.69467 1.27882,-1.61037 1.57879,-1.12094 3.74174,-1.12094 1.62615,0 2.79446,0.56837 1.46827,0.71045 1.46827,2.09979 0,1.12094 -1.32618,1.97349 -0.33155,0.20524 -2.03664,0.97885 0.521,0.67888 1.67352,1.18409 1.10515,0.47364 2.02085,0.47364 h 0.78939 z"
         style="font-style:normal;font-variant:normal;font-weight:bold;font-stretch:normal;font-family:'B Zar';-inkscape-font-specification:'B Zar Bold';stroke-width:0.80834085"
         id="path853" />
      <path
         d="m 100.53203,299.98827 h -1.184095 q -2.683944,0 -3.678583,-3.04707 -0.89991,3.04707 -3.441764,3.04707 h -1.35776 v -4.81531 h 0.868335 q 2.526066,0 3.220734,-3.31546 0.22103,-1.05779 0.789395,-1.05779 0.568365,0 0.694668,1.05779 0.37891,3.31546 2.904975,3.31546 h 1.184095 z m -0.773609,-14.0986 q 0.189455,0.18945 -0.01579,0.3947 l -1.831397,1.83139 q -0.189455,0.18946 -0.394698,0 l -1.784034,-1.78403 -1.768246,1.78403 q -0.189455,0.18946 -0.394697,0 l -1.862974,-1.81561 q -0.22103,-0.20524 0.04736,-0.47363 l 1.705094,-1.73667 q 0.236819,-0.23682 0.473638,0 l 1.736669,1.73667 1.720883,-1.73667 q 0.236818,-0.23682 0.473637,0 z"
         style="font-style:normal;font-variant:normal;font-weight:bold;font-stretch:normal;font-family:'B Zar';-inkscape-font-specification:'B Zar Bold';stroke-width:0.80834085"
         id="path855" />
      <path
         d="m 91.738165,299.98827 h -6.773013 q -3.252309,0 -3.252309,0.83676 0,0.71046 3.252309,0.71046 h 3.441765 q 2.478701,0 2.478701,2.11558 0,3.56806 -4.183796,4.98897 -3.01549,1.02622 -8.762289,1.02622 -3.520704,0 -5.873102,-1.10515 -3.331249,-1.56301 -3.331249,-5.05214 0,-1.4367 0.45785,-3.23652 0.489425,-1.91033 1.199881,-2.9997 0.426273,-0.6473 0.868335,-0.6473 0.457849,0 0.457849,0.56836 0,0.22103 -0.110515,0.521 -0.599941,1.57879 -0.599941,2.84183 0,2.85761 3.647007,4.24694 2.636581,1.01043 6.030981,1.01043 4.941616,0 7.372954,-0.7894 0.836759,-0.26839 0.836759,-0.55257 0,-0.31576 -1.120942,-0.31576 h -4.357463 q -3.820674,0 -3.820674,-2.19452 0,-2.05243 2.778672,-4.3101 3.062855,-2.4787 8.036046,-2.4787 h 1.326184 z"
         style="font-style:normal;font-variant:normal;font-weight:bold;font-stretch:normal;font-family:'B Zar';-inkscape-font-specification:'B Zar Bold';stroke-width:0.80834085"
         id="path857" />
      <path
         d="m 58.5204,295.82026 q 0,1.13673 -0.820971,2.49449 -1.073578,1.78404 -2.810248,1.78404 -2.005064,0 -5.525768,-2.27346 -1.042002,0.86833 -2.826036,1.53142 -1.768245,0.64731 -3.110218,0.64731 h -1.35776 v -4.8311 h 2.510278 q -1.547215,-0.80518 -1.547215,-2.2261 0,-0.85254 1.026214,-1.98927 0.868335,-0.96307 1.815609,-1.45249 l -1.420912,-0.55258 1.673519,-4.12064 q 0.236818,-0.56837 0.615728,-0.56837 0.236819,0 0.631517,0.22103 3.69437,2.0998 6.473042,4.42062 4.673221,3.89961 4.673221,6.9151 z m -2.162943,0.56837 q 0,-1.15252 -3.678583,-3.33125 -0.01579,0.521 -0.347334,1.27882 -0.347334,0.80518 -0.726244,1.10515 2.79446,1.53143 4.041705,1.53143 0.710456,0 0.710456,-0.58415 z m -5.636284,-3.2681 q 0,-0.77361 -1.120941,-1.53143 -1.042002,-0.72624 -1.847186,-0.72624 -0.552576,0 -1.136729,0.28418 -0.710456,0.34734 -0.710456,0.83676 0,0.521 1.563003,1.48406 1.468276,0.89992 1.862973,0.89992 0.536789,0 0.963063,-0.36313 0.426273,-0.36312 0.426273,-0.88412 z"
         style="font-style:normal;font-variant:normal;font-weight:bold;font-stretch:normal;font-family:'B Zar';-inkscape-font-specification:'B Zar Bold';stroke-width:0.80834085"
         id="path859" />
      <path
         d="m 42.827217,299.98827 h -1.168305 q -1.184093,0 -2.005064,-0.72624 -0.489425,-0.44206 -1.184093,-1.49985 -1.231457,2.79446 -3.110218,2.79446 -2.305035,0 -4.499554,-3.42598 -0.442062,1.05779 -1.215669,1.84718 -0.994639,1.01043 -2.099792,1.01043 h -1.026214 v -4.81531 h 1.073577 q 1.4367,0 1.878762,-0.88412 0.22103,-0.44207 0.22103,-1.53143 0,-1.81561 0.931487,-3.11022 1.168305,-1.62615 3.3944,-1.62615 1.73667,0 3.141794,1.86297 l 2.068216,3.42598 q 1.13673,1.86297 2.289247,1.86297 h 1.310396 z m -6.252011,-3.28388 q 0.67888,0 0.67888,-0.96307 0,-1.13673 -0.852547,-2.84182 -1.152518,-2.28925 -2.557642,-2.28925 -0.994638,0 -0.994638,1.32619 0,1.18409 0.773608,2.46291 1.389336,2.30504 2.952339,2.30504 z"
         style="font-style:normal;font-variant:normal;font-weight:bold;font-stretch:normal;font-family:'B Zar';-inkscape-font-specification:'B Zar Bold';stroke-width:0.80834085"
         id="path861" />
      <path
         d="m 27.355067,299.98827 h -1.199881 q -1.910337,0 -3.09443,-1.8314 -0.536789,-0.83676 -1.4367,-3.28388 -1.168305,2.17873 -2.305035,3.23652 -2.147155,1.98928 -5.352101,1.98928 -1.720882,0 -2.762884,-0.83676 -1.136729,-0.9157 -1.136729,-2.60501 0,-2.28924 0.805183,-4.05749 0.363122,-0.7894 0.836759,-0.7894 0.521001,0 0.521001,0.53679 0,0.22103 -0.07894,0.67888 -0.07894,0.44206 -0.07894,0.6631 0,1.75245 2.968127,1.75245 3.694371,0 5.96783,-2.11558 l -2.447126,-6.59934 2.178731,-2.39976 q 0.236819,-0.2684 0.363122,-0.2684 0.157879,0 0.268395,0.34733 l 2.589217,7.83081 q 0.963062,2.93655 2.71552,2.93655 h 0.67888 z"
         style="font-style:normal;font-variant:normal;font-weight:bold;font-stretch:normal;font-family:'B Zar';-inkscape-font-specification:'B Zar Bold';stroke-width:0.80834085"
         id="path863" />
      <path
         d="m 7.2096947,280.37969 -1.5156393,18.36134 q -0.1105153,1.35776 -0.7262438,1.35776 -0.6315163,0 -0.8367591,-1.72089 l -1.7998217,-15.36163 4.2627354,-3.09443 q 0.2841824,-0.20524 0.4420615,-0.20524 0.2210307,0 0.173667,0.66309 z"
         style="font-style:normal;font-variant:normal;font-weight:bold;font-stretch:normal;font-family:'B Zar';-inkscape-font-specification:'B Zar Bold';stroke-width:0.80834085"
         id="path865" />
      <path
         d="m -0.4474411,295.18875 q 0,4.26273 -1.8156095,6.5204 -2.605005,3.25231 -9.2517144,3.25231 -3.031279,0 -5.21001,-1.26303 -3.015491,-1.75246 -3.015491,-5.4784 0,-2.85762 1.184093,-5.47841 0.489426,-1.07358 1.026215,-1.07358 0.521001,0 0.521001,0.71046 0,0.6473 -0.299971,1.92612 -0.29997,1.26304 -0.29997,1.91034 0,2.084 2.41555,3.09443 1.926125,0.80518 4.720585,0.80518 2.3523982,0 4.8626757,-0.72624 3.47334,-1.01043 3.47334,-2.76288 0,-1.75246 -3.9311893,-5.63629 l 2.1471556,-3.58385 q 0.2368186,-0.3947 0.3789098,-0.3947 0.1263032,0 0.4420614,0.33155 1.0262141,1.07357 1.7682458,3.03127 0.8841229,2.33661 0.8841229,4.81532 z m -7.2150743,-9.07805 q 0.2052428,0.18945 -0.015788,0.41048 l -1.9734886,1.97349 q -0.2052429,0.20525 -0.4262731,0 l -2.005065,-1.94191 q -0.236819,-0.22103 0.04736,-0.50521 l 1.847185,-1.87876 q 0.2368188,-0.23682 0.4894253,0 z"
         style="font-style:normal;font-variant:normal;font-weight:bold;font-stretch:normal;font-family:'B Zar';-inkscape-font-specification:'B Zar Bold';stroke-width:0.80834085"
         id="path867" />
    </g>
  </g>
</svg>
